<svg width="97" height="97" viewBox="0 0 97 97" fill="none" xmlns="http://www.w3.org/2000/svg">
<path d="M48.5 97C44.6735 97 41.5714 93.898 41.5714 90.0714L41.5714 59.4286C41.5714 57.2194 39.7806 55.4286 37.5714 55.4286L6.92858 55.4286C3.10203 55.4286 0 52.3265 0 48.5C0 44.6734 3.10203 41.5714 6.92857 41.5714L37.5714 41.5714C39.7806 41.5714 41.5714 39.7806 41.5714 37.5714L41.5714 6.92857C41.5714 3.10202 44.6735 -1.14441e-05 48.5 -1.14441e-05C52.3265 -1.14441e-05 55.4286 3.10201 55.4286 6.92856L55.4286 37.5714C55.4286 39.7805 57.2194 41.5714 59.4286 41.5714L90.0714 41.5714C93.898 41.5714 97 44.6734 97 48.5C97 52.3265 93.898 55.4286 90.0714 55.4286L59.4286 55.4286C57.2194 55.4286 55.4286 57.2194 55.4286 59.4286L55.4286 90.0714C55.4286 93.898 52.3265 97 48.5 97Z" fill="#F9F8F8"/>
</svg>
